<?xml version="1.0" encoding="utf-8"?>
<!-- Generator: Adobe Illustrator 19.1.0, SVG Export Plug-In . SVG Version: 6.00 Build 0)  -->
<!DOCTYPE svg PUBLIC "-//W3C//DTD SVG 1.1//EN" "http://www.w3.org/Graphics/SVG/1.1/DTD/svg11.dtd">
<svg version="1.1" id="Layer_1" xmlns="http://www.w3.org/2000/svg" xmlns:xlink="http://www.w3.org/1999/xlink" x="0px" y="0px"
	 width="301.3px" height="300.7px" viewBox="0 0 301.3 300.7" style="enable-background:new 0 0 301.3 300.7;" xml:space="preserve"
	>
<style type="text/css">
	.st0{fill:none;stroke:#FF5033;stroke-width:7;stroke-linejoin:round;stroke-miterlimit:10;}
	.st1{fill:none;stroke:#FF5033;stroke-width:7;stroke-miterlimit:10;}
	.st2{fill:none;}
	.st3{fill:#FF5033;}
	.st4{font-family:'Montserrat-Bold';}
	.st5{font-size:220px;}
	.st6{font-size:20px;}
	.st7{font-size:30px;}
	.st8{font-size:40px;}
	.st9{font-size:70px;}
	.st10{fill:#CCCCCC;}
	.st11{fill:none;stroke:#CCCCCC;stroke-width:21;stroke-miterlimit:10;}
	.st12{fill:none;stroke:#CCCCCC;stroke-width:20;stroke-miterlimit:10;}
	.st13{fill:none;stroke:#CCCCCC;stroke-width:9;stroke-miterlimit:10;}
</style>
<rect x="80" y="68.6" class="st2" width="140" height="163.7"/>
<text transform="matrix(1 0 0 1 79.9972 231.8057)" class="st3 st4 st5">$</text>
<rect x="87.3" y="77.2" class="st2" width="140" height="163.7"/>
<text transform="matrix(1 0 0 1 87.3158 92.0699)" class="st3 st4 st6">$</text>
<rect x="205.3" y="108.4" class="st2" width="140" height="163.7"/>
<text transform="matrix(1 0 0 1 205.3158 123.2741)" class="st3 st4 st6">$</text>
<rect x="71.3" y="198.2" class="st2" width="140" height="163.7"/>
<text transform="matrix(1 0 0 1 71.3193 213.0738)" class="st3 st4 st6">$</text>
<rect x="214.6" y="83.9" class="st2" width="140" height="163.7"/>
<text transform="matrix(1 0 0 1 214.6501 106.1749)" class="st3 st4 st7">$</text>
<rect x="208" y="210.6" class="st2" width="140" height="163.7"/>
<text transform="matrix(1 0 0 1 207.9825 240.2349)" class="st3 st4 st8">$</text>
<rect x="38" y="144.2" class="st2" width="140" height="163.7"/>
<text transform="matrix(1 0 0 1 37.9824 196.1499)" class="st3 st4 st9">$</text>
<g>
	<g>
		<path class="st10" d="M150.4,21.2c15.9,0,31.6,2.8,46.6,8.6c32.2,12.5,57.7,36.7,71.7,68.3c14,31.6,14.8,66.7,2.4,98.9
			c-9.6,24.8-26.3,45.8-48.3,60.6c-21.5,14.5-46.6,22.1-72.4,22.1c-15.9,0-31.6-2.9-46.6-8.7c-32.2-12.5-57.7-36.7-71.7-68.3
			s-14.8-66.8-2.4-99C39.3,78.9,56,58.1,78,43.3C99.5,28.8,124.6,21.2,150.4,21.2h-0.1 M150.4,0C90.1,0,33.2,36.6,10.1,96.2
			c-29.9,77.5,8.6,164.5,86,194.5c17.8,6.9,36.2,10.2,54.2,10.2c60.3,0,117.2-36.6,140.3-96.2c29.9-77.5-8.6-164.5-86-194.5
			C186.8,3.3,168.4,0,150.4,0L150.4,0z"/>
	</g>
	<line class="st11" x1="9.4" y1="98.7" x2="289.2" y2="206.8"/>
</g>
</svg>
