<?xml version="1.0" encoding="utf-8"?>
<!-- Generator: Adobe Illustrator 19.1.0, SVG Export Plug-In . SVG Version: 6.00 Build 0)  -->
<!DOCTYPE svg PUBLIC "-//W3C//DTD SVG 1.1//EN" "http://www.w3.org/Graphics/SVG/1.1/DTD/svg11.dtd">
<svg version="1.1" id="Layer_1" xmlns="http://www.w3.org/2000/svg" xmlns:xlink="http://www.w3.org/1999/xlink" x="0px" y="0px"
	 width="301.3px" height="300.5px" viewBox="0 0 301.3 300.5" style="enable-background:new 0 0 301.3 300.5;" xml:space="preserve"
	>
<style type="text/css">
	.st0{fill:none;stroke:#FF5033;stroke-width:7;stroke-linejoin:round;stroke-miterlimit:10;}
	.st1{fill:none;stroke:#FF5033;stroke-width:7;stroke-miterlimit:10;}
	.st2{fill:#FF5033;}
	.st3{fill:#CCCCCC;}
	.st4{fill:none;stroke:#CCCCCC;stroke-width:21;stroke-miterlimit:10;}
	.st5{fill:none;stroke:#CCCCCC;stroke-width:20;stroke-miterlimit:10;}
	.st6{fill:none;stroke:#CCCCCC;stroke-width:9;stroke-miterlimit:10;}
</style>
<polygon class="st0" points="39.1,144.8 47.4,90.6 90.2,125 "/>
<path class="st1" d="M30.7,234l-31.1-4.2c-2.6-0.3-4.4-2.7-4.1-5.3l1.8-13.3c0.3-2.6,2.7-4.4,5.3-4.1l31.1,4.2
	c2.6,0.3,4.4,2.7,4.1,5.3L36,230C35.7,232.5,33.3,234.4,30.7,234z"/>
<path class="st1" d="M255.5,203.7l26.1-17.5c2.2-1.5,5.1-0.9,6.6,1.3l7.5,11.2c1.5,2.2,0.9,5.1-1.3,6.6l-26.1,17.5
	c-2.2,1.5-5.1,0.9-6.6-1.3l-7.5-11.2C252.8,208.1,253.3,205.2,255.5,203.7z"/>
<g>
	<path class="st3" d="M260.7,65.3c17.4,0,31.6,14.2,31.6,31.6v144.6c0,17.4-14.2,31.6-31.6,31.6H40.9c-17.4,0-31.6-14.2-31.6-31.6
		V96.9c0-17.4,14.2-31.6,31.6-31.6H260.7 M260.7,56.3H40.9c-22.3,0-40.6,18.3-40.6,40.6v144.6c0,22.3,18.3,40.6,40.6,40.6h219.8
		c22.3,0,40.6-18.3,40.6-40.6V96.9C301.3,74.5,283,56.3,260.7,56.3L260.7,56.3z"/>
</g>
<line class="st5" x1="62.3" y1="65" x2="62.3" y2="274"/>
<line class="st5" x1="242.3" y1="65" x2="242.3" y2="274"/>
<path class="st6" d="M187.2,18.5h-72.6c-7.5,0-14.2,7.3-14.2,12.2v30.5h20.8V40.6c0-2.1,2.8-3.5,6-3.5H176c3.2,0,6.5,1.4,6.5,3.5
	v20.5h20.8V37c0-6.2-2.8-12.2-7.9-15.7C193,19.6,190.2,18.5,187.2,18.5z"/>
<path class="st1" d="M206.5,136l-31-5c-2.6-0.4-4.3-2.9-3.9-5.4l2.1-13.3c0.4-2.6,2.9-4.3,5.4-3.9l31,5c2.6,0.4,4.3,2.9,3.9,5.4
	l-2.1,13.3C211.5,134.6,209.1,136.4,206.5,136z"/>
</svg>
