<?xml version="1.0" encoding="utf-8"?>
<!-- Generator: Adobe Illustrator 19.1.0, SVG Export Plug-In . SVG Version: 6.00 Build 0)  -->
<!DOCTYPE svg PUBLIC "-//W3C//DTD SVG 1.1//EN" "http://www.w3.org/Graphics/SVG/1.1/DTD/svg11.dtd">
<svg version="1.1" id="Layer_1" xmlns="http://www.w3.org/2000/svg" xmlns:xlink="http://www.w3.org/1999/xlink" x="0px" y="0px"
	 width="59.6px" height="59.6px" viewBox="0 0 59.6 59.6" style="enable-background:new 0 0 59.6 59.6;" xml:space="preserve">
<style type="text/css">
	.st0{fill:#FFFFFF;}
	.st1{fill:#FF5033;}
	.st2{fill:#FFFFFF;stroke:#FF5033;stroke-width:5;stroke-miterlimit:10;}
</style>
<g>
	<path class="st0" d="M29.8,57.1c-15.1,0-27.3-12.2-27.3-27.3c0-15.1,12.2-27.3,27.3-27.3c15.1,0,27.3,12.2,27.3,27.3
		C57.1,44.9,44.9,57.1,29.8,57.1z"/>
	<path class="st1" d="M29.8,5c13.7,0,24.8,11.1,24.8,24.8c0,13.7-11.1,24.8-24.8,24.8S5,43.5,5,29.8C5,16.1,16.1,5,29.8,5 M29.8,0
		C13.3,0,0,13.3,0,29.8s13.3,29.8,29.8,29.8s29.8-13.3,29.8-29.8S46.3,0,29.8,0L29.8,0z"/>
</g>
<line class="st2" x1="19.9" y1="20.1" x2="29.9" y2="30.1"/>
<line class="st2" x1="29.6" y1="29.8" x2="39.6" y2="39.8"/>
<line class="st2" x1="39.6" y1="20.1" x2="29.6" y2="30.1"/>
<line class="st2" x1="29.9" y1="29.8" x2="19.9" y2="39.8"/>
</svg>
