<svg xmlns="http://www.w3.org/2000/svg" width="59.6" height="59.6" viewBox="0 0 59.6 59.6"><style type="text/css">.st0{fill:#FFFFFF;} .st1{fill:#FF5033;} .st2{fill:#FFFFFF;stroke:#FF5033;stroke-width:5;stroke-miterlimit:10;}</style><path class="st0" d="M29.8 57.1c-15.1 0-27.3-12.2-27.3-27.3 0-15.1 12.2-27.3 27.3-27.3 15.1 0 27.3 12.2 27.3 27.3 0 15.1-12.2 27.3-27.3 27.3z"/><path class="st1" d="M29.8 5c13.7 0 24.8 11.1 24.8 24.8 0 13.7-11.1 24.8-24.8 24.8s-24.8-11.1-24.8-24.8c0-13.7 11.1-24.8 24.8-24.8m0-5c-16.5 0-29.8 13.3-29.8 29.8s13.3 29.8 29.8 29.8 29.8-13.3 29.8-29.8-13.3-29.8-29.8-29.8z"/><path class="st2" d="M19.9 20.1l10 10M29.6 29.8l10 10M39.6 20.1l-10 10M29.9 29.8l-10 10"/></svg>