<svg xmlns="http://www.w3.org/2000/svg" width="59.6" height="59.6" viewBox="0 0 59.6 59.6"><style type="text/css">.st0{fill:#FFFFFF;} .st1{fill:#FF5033;} .st2{fill:#FFFFFF;stroke:#FF5033;stroke-width:5;stroke-miterlimit:10;} .st3{fill:none;stroke:#FFFFFF;stroke-width:6;stroke-linecap:square;stroke-linejoin:round;stroke-miterlimit:10;} .st4{fill:#FFFFFF;stroke:#FF5033;stroke-width:3;stroke-miterlimit:10;}</style><path class="st0" d="M30.2 56.4c-15.1 0-27.3-12.2-27.3-27.3s12.3-27.3 27.3-27.3 27.3 12.2 27.3 27.3-12.2 27.3-27.3 27.3z"/><path class="st1" d="M30.2 4.3c13.7 0 24.8 11.2 24.8 24.8s-11.1 24.8-24.8 24.8-24.8-11.1-24.8-24.8 11.1-24.8 24.8-24.8m0-5c-16.4 0-29.8 13.4-29.8 29.8s13.3 29.8 29.8 29.8 29.8-13.3 29.8-29.8-13.3-29.8-29.8-29.8z"/><path class="st2" d="M20.3 19.4l10 10M30 29.1l10 10M40 19.4l-10 10M30.3 29.1l-10 10"/></svg>