<?xml version="1.0" encoding="utf-8"?>
<!-- Generator: Adobe Illustrator 19.1.0, SVG Export Plug-In . SVG Version: 6.00 Build 0)  -->
<!DOCTYPE svg PUBLIC "-//W3C//DTD SVG 1.1//EN" "http://www.w3.org/Graphics/SVG/1.1/DTD/svg11.dtd">
<svg version="1.1" id="Layer_1" xmlns="http://www.w3.org/2000/svg" xmlns:xlink="http://www.w3.org/1999/xlink" x="0px" y="0px"
	 width="59.6px" height="59.6px" viewBox="0 0 59.6 59.6" style="enable-background:new 0 0 59.6 59.6;" xml:space="preserve">
<style type="text/css">
	.st0{fill:#FFFFFF;}
	.st1{fill:#FF5033;}
	.st2{fill:#FFFFFF;stroke:#FF5033;stroke-width:5;stroke-miterlimit:10;}
	.st3{fill:none;stroke:#FFFFFF;stroke-width:6;stroke-linecap:square;stroke-linejoin:round;stroke-miterlimit:10;}
	.st4{fill:#FFFFFF;stroke:#FF5033;stroke-width:3;stroke-miterlimit:10;}
</style>
<g>
	<path class="st0" d="M30.2,56.4c-15.1,0-27.3-12.2-27.3-27.3S15.2,1.8,30.2,1.8s27.3,12.2,27.3,27.3S45.3,56.4,30.2,56.4z"/>
	<path class="st1" d="M30.2,4.3C43.9,4.3,55,15.5,55,29.1S43.9,53.9,30.2,53.9S5.4,42.8,5.4,29.1S16.5,4.3,30.2,4.3 M30.2-0.7
		C13.8-0.7,0.4,12.7,0.4,29.1s13.3,29.8,29.8,29.8S60,45.6,60,29.1S46.7-0.7,30.2-0.7L30.2-0.7z"/>
</g>
<line class="st2" x1="20.3" y1="19.4" x2="30.3" y2="29.4"/>
<line class="st2" x1="30" y1="29.1" x2="40" y2="39.1"/>
<line class="st2" x1="40" y1="19.4" x2="30" y2="29.4"/>
<line class="st2" x1="30.3" y1="29.1" x2="20.3" y2="39.1"/>
</svg>
