<svg xmlns="http://www.w3.org/2000/svg" width="53" height="53" viewBox="0 0 53 53"><style type="text/css">.st0{fill:#FF5033;} .st1{fill:#FFFFFF;}</style><path class="st0" d="M0 0h53v53h-53z"/><path class="st1" d="M37.6 20h-22.2c-.8 0-1.4-.6-1.4-1.4v-.4c0-.8.6-1.4 1.4-1.4h22.2c.8 0 1.4.6 1.4 1.4v.4c0 .8-.6 1.4-1.4 1.4zM37.6 28.1h-22.2c-.8 0-1.4-.6-1.4-1.4v-.4c0-.8.6-1.4 1.4-1.4h22.2c.8 0 1.4.6 1.4 1.4v.4c0 .8-.6 1.4-1.4 1.4zM37.6 36.1h-22.2c-.8 0-1.4-.6-1.4-1.4v-.4c0-.8.6-1.4 1.4-1.4h22.2c.8 0 1.4.6 1.4 1.4v.4c0 .8-.6 1.4-1.4 1.4z"/></svg>