<?xml version="1.0" encoding="utf-8"?>
<!-- Generator: Adobe Illustrator 19.1.0, SVG Export Plug-In . SVG Version: 6.00 Build 0)  -->
<!DOCTYPE svg PUBLIC "-//W3C//DTD SVG 1.1//EN" "http://www.w3.org/Graphics/SVG/1.1/DTD/svg11.dtd">
<svg version="1.1" id="Layer_1" xmlns="http://www.w3.org/2000/svg" xmlns:xlink="http://www.w3.org/1999/xlink" x="0px" y="0px"
	 width="53px" height="53px" viewBox="0 0 53 53" style="enable-background:new 0 0 53 53;" xml:space="preserve">
<style type="text/css">
	.st0{fill:#FF5033;}
	.st1{fill:#FFFFFF;}
</style>
<rect class="st0" width="53" height="53"/>
<g>
	<path class="st1" d="M44.8,16.7H8.2c-0.8,0-1.4-0.6-1.4-1.4V9.5c0-0.8,0.6-1.4,1.4-1.4h36.7c0.8,0,1.4,0.6,1.4,1.4v5.8
		C46.2,16.1,45.6,16.7,44.8,16.7z"/>
	<path class="st1" d="M44.8,30.2H8.2c-0.8,0-1.4-0.6-1.4-1.4V23c0-0.8,0.6-1.4,1.4-1.4h36.7c0.8,0,1.4,0.6,1.4,1.4v5.8
		C46.2,29.6,45.6,30.2,44.8,30.2z"/>
	<path class="st1" d="M44.8,44.8H8.2c-0.8,0-1.4-0.6-1.4-1.4v-5.8c0-0.8,0.6-1.4,1.4-1.4h36.7c0.8,0,1.4,0.6,1.4,1.4v5.8
		C46.2,44.2,45.6,44.8,44.8,44.8z"/>
</g>
</svg>
