<?xml version="1.0" encoding="utf-8"?>
<!-- Generator: Adobe Illustrator 19.1.0, SVG Export Plug-In . SVG Version: 6.00 Build 0)  -->
<!DOCTYPE svg PUBLIC "-//W3C//DTD SVG 1.1//EN" "http://www.w3.org/Graphics/SVG/1.1/DTD/svg11.dtd">
<svg version="1.1" id="Layer_1" xmlns="http://www.w3.org/2000/svg" xmlns:xlink="http://www.w3.org/1999/xlink" x="0px" y="0px"
	 width="53px" height="53px" viewBox="0 0 53 53" style="enable-background:new 0 0 53 53;" xml:space="preserve">
<style type="text/css">
	.st0{fill:#FF5033;}
	.st1{fill:#FFFFFF;}
</style>
<rect class="st0" width="53" height="53"/>
<g>
	<path class="st1" d="M37.6,20.3H15.4c-0.8,0-1.4-0.6-1.4-1.4v-2.7c0-0.8,0.6-1.4,1.4-1.4h22.2c0.8,0,1.4,0.6,1.4,1.4v2.7
		C39,19.7,38.4,20.3,37.6,20.3z"/>
	<path class="st1" d="M37.6,28.8H15.4c-0.8,0-1.4-0.6-1.4-1.4v-2.7c0-0.8,0.6-1.4,1.4-1.4h22.2c0.8,0,1.4,0.6,1.4,1.4v2.7
		C39,28.2,38.4,28.8,37.6,28.8z"/>
	<path class="st1" d="M37.6,38.1H15.4c-0.8,0-1.4-0.6-1.4-1.4v-2.7c0-0.8,0.6-1.4,1.4-1.4h22.2c0.8,0,1.4,0.6,1.4,1.4v2.7
		C39,37.5,38.4,38.1,37.6,38.1z"/>
</g>
</svg>
